<svg width="134" height="16" viewBox="0 0 134 16" fill="none" xmlns="http://www.w3.org/2000/svg">
<path d="M37.0057 4.94132L39.1559 4.94509C40.7556 7.17103 44.035 9.55297 43.6432 12.5996C43.5128 13.582 42.9914 14.4701 42.1976 15.0621C41.2017 15.82 40.113 15.916 38.9173 15.7519C37.8428 15.4676 37.4192 15.2024 36.5818 14.5192L37.5047 12.7248C38.176 13.1629 39.062 13.6316 39.8996 13.3825C43.0403 12.4488 39.4783 9.02368 38.439 7.80397C37.661 9.97358 36.7685 12.8019 35.3154 14.581C34.5539 15.4098 33.4285 15.8708 32.3332 15.6915C30.4054 15.3759 30.8752 12.7702 30.8754 11.2109L30.8931 4.95473L33.4541 4.95201L33.4589 13.227C34.7523 11.6745 36.2363 7.04667 37.0057 4.94132Z" fill="#FCFCFC"/>
<path d="M125.297 4.50851L131.253 4.49955C131.473 5.01092 132.012 5.94146 132.293 6.46269C132.21 6.51678 132.129 6.57244 132.048 6.62969C130.721 7.57303 129.229 9.21651 128.931 10.8586C128.7 12.1286 129.392 13.4593 130.754 13.6448C132.027 13.8184 133.002 13.254 133.997 12.5285V14.3591C134.009 14.4803 133.985 14.6185 133.886 14.7027C131.075 17.0918 126.406 15.9253 126.252 11.8768C126.174 9.83205 127.442 8.12342 128.782 6.6965C127.93 6.70177 127.079 6.70132 126.228 6.69499C125.892 6.43882 125.387 5.96556 125.055 5.67451C125.052 5.38219 125.004 4.78359 125.117 4.56237L125.297 4.50851Z" fill="#FCFCFC"/>
<path d="M31.7723 0.727674C32.3587 0.566558 32.9863 0.733549 33.4152 1.16492C33.8442 1.59622 34.0083 2.22525 33.8448 2.81148C33.6813 3.39772 33.2154 3.85057 32.6253 3.99707C31.7285 4.21965 30.8196 3.67891 30.5861 2.78399C30.3526 1.889 30.8813 0.972474 31.7723 0.727674Z" fill="#FCFCFC"/>
<path d="M120.068 4.19502C122.533 3.99549 124.322 5.02267 125.408 7.21924C123.399 9.06827 121.057 10.9802 118.94 12.7052C120.897 14.1082 123.399 13.4855 125.275 12.265L125.284 13.6059L125.289 14.497C124.313 15.1486 123.366 15.6175 122.197 15.8189C120.495 16.1264 118.741 15.7426 117.322 14.7523C112.922 11.6173 114.547 5.0992 120.068 4.19502ZM122.247 7.10625C121.509 6.73393 121.197 6.61319 120.361 6.60845C119.414 6.74576 118.616 7.0631 118.022 7.85647C117.504 8.56195 117.288 9.44466 117.421 10.3098C117.446 10.4694 117.473 10.6285 117.503 10.787L118.584 9.95904C119.6 9.179 121.346 7.91093 122.247 7.10625Z" fill="white"/>
<path d="M111.656 0.0133091C112.274 -0.0051099 112.938 -0.000453813 113.585 0.00408758C113.862 0.0060277 114.136 0.00794689 114.401 0.00803708C114.47 4.49583 114.439 9.28732 114.41 13.8506L114.41 13.8802L114.41 13.9041C114.406 14.5042 114.402 15.1002 114.398 15.6911L111.687 15.6859L111.67 14.2716C109.617 16.5996 106.966 16.173 104.661 14.4921C103.567 15.5174 102.345 16.1593 100.804 15.7832C98.5001 15.209 98.5831 12.9408 98.6613 10.8032C98.6977 9.80802 98.7331 8.84113 98.5261 8.08666C97.9641 6.03757 94.439 6.5283 94.0801 8.50538C93.8873 9.56504 93.9233 10.7013 93.959 11.8249C93.9795 12.4728 93.9999 13.1165 93.9763 13.739C93.9683 13.9499 93.9749 14.1729 93.9816 14.3987C93.9939 14.8103 94.0064 15.2314 93.9311 15.6073L93.8055 15.6886L91.2405 15.6883L91.2465 4.56478C92.1554 4.55815 93.0643 4.55785 93.974 4.56395L93.977 5.93227C94.8995 5.00783 96.0537 4.42626 97.3275 4.3953C100.21 4.32533 101.516 6.32357 101.329 9.01999C101.33 9.50688 101.323 9.99418 101.317 10.4815C101.308 11.1081 101.299 11.7348 101.308 12.3607C101.313 12.7264 101.376 13.1142 101.651 13.3665C102.312 13.6926 102.815 13.0396 103.172 12.5762L103.227 12.5047C102.912 11.9647 102.707 11.3671 102.626 10.7468C102.429 9.30569 102.901 7.75004 103.777 6.60234C104.724 5.36855 106.12 4.55853 107.66 4.348C109.261 4.14049 110.426 4.61585 111.653 5.56778C111.672 4.34214 111.667 3.0861 111.661 1.8391V1.83751V1.83592C111.659 1.22507 111.656 0.615485 111.656 0.0133091ZM111.683 9.72011C111.486 7.93857 109.888 6.65078 108.108 6.83765C106.313 7.02604 105.013 8.64096 105.212 10.437C105.411 12.2332 107.031 13.5245 108.824 13.3154C110.602 13.1079 111.88 11.5016 111.683 9.72011Z" fill="white"/>
<path d="M67.1979 0.772641C67.5106 0.772316 68.0117 0.763697 68.6184 0.753261C70.9621 0.712949 74.8817 0.645532 75.6031 0.924418C76.357 1.21562 76.7528 1.87763 77.0545 2.58281C76.1763 3.59403 75.2113 4.54764 74.2488 5.49885C73.1638 6.57117 72.0817 7.64058 71.13 8.78649C69.6597 10.5573 72.6491 13.1419 74.4293 13.1262C75.828 13.1138 76.6557 12.5721 77.6782 11.6221C76.2517 6.20818 83.3055 2.04229 87.4792 5.91321L87.4912 4.59167C88.0796 4.55974 88.7764 4.5623 89.4324 4.5647C89.6941 4.56566 89.9493 4.5666 90.1886 4.56531L90.1796 15.6919L87.4935 15.6868L87.4769 14.2736C87.4257 14.328 87.3746 14.3817 87.3227 14.4347C84.9127 16.8722 81.2582 16.2637 78.9709 13.9799C77.6797 15.0885 76.3284 15.8485 74.5941 15.9405C72.701 16.0431 70.8478 15.3764 69.4528 14.0916C67.0842 11.931 66.7419 9.0334 69.033 6.72813C69.3197 6.43969 69.613 6.14817 69.9083 5.85469C70.6492 5.1183 71.4025 4.36965 72.0938 3.62678L67.1933 3.62588L67.1979 0.772641ZM84.4763 13.427C89.2669 12.1695 87.8817 6.4886 83.2709 6.89844C82.1807 7.14399 81.2868 7.58682 80.6676 8.56398C80.2274 9.25176 80.0814 10.0879 80.2628 10.8845C80.7067 12.7808 82.6532 13.6915 84.4763 13.427Z" fill="white"/>
<path d="M49.3605 4.27787C50.0763 4.24225 50.7928 4.33203 51.4778 4.54324C53.0285 5.03789 53.7537 5.95253 54.4629 7.33064C53.2883 8.24619 52.1263 9.20461 50.9624 10.1647C49.9327 11.014 48.9014 11.8646 47.8586 12.6878C48.0747 12.8213 48.4207 12.9894 48.6564 13.0842C49.6036 13.465 50.6639 13.4484 51.5986 13.0381C53.6315 12.1408 54.8246 8.76954 55.7126 6.26022C55.8803 5.78632 56.0372 5.34317 56.1867 4.95322L58.2499 4.9478C58.6529 5.40449 59.1345 5.88329 59.6347 6.3805C61.1315 7.86842 62.7951 9.52216 63.019 11.2484C63.1589 12.325 62.8655 13.4131 62.2033 14.2729C61.4246 15.266 60.3878 15.6578 59.1764 15.8031C57.6769 15.8742 56.7447 15.3648 55.6053 14.502L56.6759 12.6145C58.4381 13.5849 61.4178 13.7275 60.1748 10.6501C60.0376 10.311 58.7598 9.06456 58.0207 8.3436C57.8319 8.15943 57.6783 8.00956 57.5878 7.91786C57.4701 8.2082 57.3538 8.50348 57.2366 8.80113C56.464 10.7635 55.6509 12.8287 54.1153 14.259C51.9509 16.275 48.3006 16.4151 46.0025 14.5545C41.7718 11.1293 44.0814 4.84988 49.3605 4.27787ZM51.2766 7.13955C50.575 6.76489 50.0298 6.57364 49.2192 6.60709C47.0306 6.94431 45.972 8.62959 46.447 10.7668L47.615 9.87791C48.2151 9.41886 48.824 8.9688 49.4316 8.51969C50.0515 8.06152 50.6701 7.60433 51.2766 7.13955Z" fill="white"/>
<path d="M0.00105395 0.582977L3.01891 0.580039L8.44472 5.69297L13.8763 0.587799L16.8207 0.584935L16.8132 8.49348C16.813 8.82314 16.8068 9.17733 16.8004 9.54207C16.7828 10.5413 16.7638 11.6211 16.8639 12.5021C17.0411 14.0623 18.4599 13.1 18.994 12.3079C18.4928 11.1143 18.4535 9.77661 18.8835 8.55547C19.3929 7.10377 20.5501 5.89672 21.9301 5.23982C23.3773 4.55069 25.0394 4.46829 26.5476 5.01084C28.0039 5.52658 29.1932 6.6049 29.8498 8.00478C31.2614 11.0245 29.867 14.1242 26.9233 15.4932C24.5294 16.4425 22.3029 16.0223 20.3672 14.3809C19.3469 15.2553 18.5365 15.8305 17.1405 15.8592C15.4408 15.894 14.1445 14.9533 13.9652 13.216C13.8814 12.404 13.8901 11.5342 13.8986 10.6881C13.9009 10.4585 13.9032 10.2306 13.9036 10.006L13.9021 4.56139C12.4349 5.83944 10.9527 7.20089 9.49938 8.53584C9.14705 8.85946 8.79642 9.18153 8.4481 9.50047C6.84035 7.96192 4.67565 6.03682 2.98723 4.57525C2.93286 6.99305 2.94766 9.54082 2.96222 12.0491C2.96926 13.2617 2.97625 14.4651 2.97534 15.6401L0 15.6604L0.00105395 0.582977ZM27.689 9.63975C27.3098 7.87463 25.5647 6.75841 23.8054 7.15559C22.0706 7.5472 20.9746 9.26449 21.3485 11.0049C21.7224 12.7454 23.4269 13.8596 25.1691 13.5026C26.936 13.1405 28.0682 11.4048 27.689 9.63975Z" fill="white"/>
</svg>
